<svg viewBox="236.21 234.94 144.8 137.61"> 	 	
	<g> 		 		
		<path d="M331.303 235.296 C 320.262 236.962,310.690 242.810,305.256 251.209 C 303.136 254.487,302.993 254.580,301.909 253.381 C 298.630 249.758,287.886 244.309,280.577 242.561 C 257.919 237.144,234.991 259.253,236.262 285.294 C 236.916 298.703,244.245 319.867,254.742 338.655 C 272.743 370.879,284.599 378.596,300.210 368.253 C 307.839 363.198,308.724 363.200,318.067 368.282 C 326.538 372.890,329.623 373.453,334.065 371.202 C 349.566 363.348,371.804 329.987,378.136 305.091 C 382.657 287.312,381.788 268.555,375.988 258.718 C 366.762 243.070,347.319 232.879,331.303 235.296M339.720 256.478 C 348.994 258.110,353.187 261.064,357.255 268.835 C 364.179 282.058,363.207 296.977,354.161 316.303 C 349.425 326.422,336.422 345.540,331.933 348.984 C 329.464 350.878,325.409 350.197,318.277 346.692 C 308.465 341.869,306.216 341.988,296.429 347.846 C 288.272 352.727,288.097 352.730,284.616 348.031 C 266.942 324.174,255.340 296.092,257.162 281.581 C 260.625 254.005,292.463 258.028,303.885 287.486 C 304.977 290.302,305.266 290.462,305.642 288.459 C 306.405 284.390,313.792 271.886,318.812 266.163 C 326.220 257.719,331.880 255.098,339.720 256.478"></path> 		 	
	</g>  
</svg>