<svg viewBox="0.41 222.34 150.14 150.26"> 	
 	<g> 		 	
 		<path d="M66.597 222.527 C 10.815 230.547,-17.869 293.129,13.115 339.210 C 51.511 396.313,138.476 376.447,149.838 307.978 C 152.123 294.203,148.776 275.217,141.779 262.278 C 130.711 241.808,112.780 228.435,89.706 223.443 C 86.043 222.650,70.126 222.020,66.597 222.527M82.857 243.284 C 84.082 243.519,86.124 243.912,87.395 244.157 C 113.205 249.134,132.691 276.377,129.443 302.941 C 123.848 348.690,68.859 367.625,37.089 334.742 C 13.147 309.962,18.070 269.999,47.387 251.129 C 49.070 250.046,50.525 249.160,50.621 249.160 C 50.717 249.160,52.177 248.507,53.864 247.710 C 62.393 243.679,74.936 241.764,82.857 243.284"></path> 		 
 	</g> 
</svg>