<svg viewBox="214.98 12.64 185.22 144.85"> 	 	
	<g> 		 		
		<path d="M304.412 14.326 C 301.634 16.150,298.904 17.828,275.210 32.266 C 266.313 37.687,252.174 46.401,243.790 51.629 C 235.405 56.857,225.605 62.955,222.012 65.181 C 218.418 67.407,215.266 69.439,215.008 69.698 C 214.661 70.045,217.317 70.168,225.124 70.168 L 235.710 70.168 235.817 113.761 L 235.924 157.353 307.458 157.459 C 364.541 157.544,378.995 157.459,379.009 157.039 C 379.019 156.749,379.012 136.896,378.994 112.920 L 378.960 69.328 389.578 69.328 L 400.195 69.328 398.732 68.339 C 397.927 67.796,394.622 65.742,391.387 63.775 C 388.151 61.808,382.668 58.443,379.202 56.297 C 371.925 51.793,361.036 45.139,350.210 38.580 C 346.050 36.060,339.905 32.303,336.555 30.230 C 333.204 28.157,329.611 25.959,328.571 25.346 C 327.532 24.733,324.034 22.589,320.798 20.582 C 311.893 15.057,307.724 12.602,307.308 12.638 C 307.102 12.656,305.798 13.416,304.412 14.326M316.289 41.912 C 320.790 44.627,324.973 47.132,325.584 47.479 C 326.195 47.826,328.109 48.988,329.839 50.062 C 334.222 52.785,352.136 63.631,355.567 65.639 L 358.403 67.300 358.426 95.309 C 358.447 120.228,358.443 132.204,358.413 135.819 L 358.403 136.975 307.563 136.975 L 256.723 136.975 256.650 124.475 C 256.611 117.600,256.564 102.152,256.545 90.147 L 256.513 68.319 264.496 63.372 C 271.855 58.811,286.765 49.634,301.384 40.666 C 304.667 38.652,307.522 36.998,307.728 36.990 C 307.935 36.981,311.787 39.196,316.289 41.912"></path> 		 	
	</g>  
</svg>