<svg viewBox="220.63 14.83 140.23 141.73">
  <path d="M481.755,-12.863L481.755,-12.824999999999989L410.885,-12.824999999999989L410.885,-41.17099999999999L410.885,-41.17099999999999L410.885,-154.55700000000002L481.755,-154.55700000000002L481.755,-154.519C519.88,-153.554,550.994,-121.876,551.114,-83.691C550.141,-45.230999999999995,520.94,-13.646999999999991,481.755,-12.863ZM481.755,-41.209C504.403,-41.78200000000001,522.692,-61.25200000000001,522.767,-83.691C522.204,-105.993,504.77200000000005,-125.76499999999999,481.755,-126.172L481.755,-126.21100000000001L479.653,-126.21100000000001L479.653,-126.20999999999998L439.231,-126.20999999999998L439.231,-97.864L439.231,-97.864L439.231,-41.17099999999999L481.755,-41.17099999999999L481.755,-41.209Z" fill="#000000"></path>
</svg>