<svg viewBox="220.63 14.83 140.23 141.73">
  <path d="M 70.872 141.694 L 70.872 141.732 L 0.002 141.732 L 0.002 113.386 L 0.002 113.386 L 0.002 -0 L 70.872 -0 L 70.872 0.038 C 108.997 1.003 140.111 32.681 140.231 70.866 C 139.258 109.326 110.057 140.91 70.872 141.694 Z M 70.872 113.348 C 93.52 112.775 111.809 93.305 111.884 70.866 C 111.321 48.564 93.889 28.792 70.872 28.385 L 70.872 28.346 L 68.77 28.346 L 68.77 28.347 L 28.348 28.347 L 28.348 56.693 L 28.348 56.693 L 28.348 113.386 L 70.872 113.386 L 70.872 113.348 Z" fill="#000000"></path>
</svg>