<svg viewBox="221.13 196.97 141.73 141.73">
	<path d="M465.66200000000003,195.89999999999998L465.66200000000003,195.89999999999998L508.07899999999995,195.89999999999998L508.07899999999995,195.902L508.182,195.89999999999998C531.665,195.89999999999998,550.702,214.937,550.702,238.42000000000002L550.702,238.41899999999998L550.702,238.42000000000002L550.702,238.42000000000002C550.566,256.08,539.124,273.28499999999997,521.926,278.63199999999995L550.702,337.63199999999995L519.163,337.63199999999995L500.481,299.328L500.48199999999997,299.328L491.51300000000003,280.94000000000005L451.38599999999997,280.94000000000005L451.38599999999997,280.93899999999996L437.31600000000003,280.93899999999996L437.31600000000003,337.63199999999995L408.96900000000005,337.63199999999995L408.96900000000005,252.59300000000002L408.96900000000005,252.59300000000002L408.96900000000005,195.89999999999998L465.66200000000003,195.89999999999998ZM463.47400000000005,224.24599999999998L437.31600000000003,224.24599999999998L437.31600000000003,252.59300000000002L508.07899999999995,252.59300000000002L508.07899999999995,252.58800000000002L508.182,252.59300000000002C516.339,252.19,520.707,247.594,522.282,239.86900000000003L522.355,238.42000000000002L522.282,236.97000000000003C521.207,229.575,515.598,224.622,508.182,224.247L508.07899999999995,224.252L508.07899999999995,224.247L463.47400000000005,224.24599999999998Z" fill="#000000"></path>
</svg>