<svg viewBox="221.13 196.97 141.73 141.73">
	<path d="M 56.693 -0 L 56.693 -0 L 99.11 -0 L 99.11 0.002 L 99.213 -0 C 122.696 -0 141.733 19.037 141.733 42.52 L 141.733 42.519 L 141.733 42.52 L 141.733 42.52 C 141.597 60.18 130.155 77.385 112.957 82.732 L 141.733 141.732 L 110.194 141.732 L 91.512 103.428 L 91.513 103.428 L 82.544 85.04 L 42.417 85.04 L 42.417 85.039 L 28.347 85.039 L 28.347 141.732 L 0 141.732 L 0 56.693 L 0 56.693 L 0 -0 L 56.693 -0 Z M 54.505 28.346 L 28.347 28.346 L 28.347 56.693 L 99.11 56.693 L 99.11 56.688 L 99.213 56.693 C 107.37 56.29 111.738 51.694 113.313 43.969 L 113.386 42.52 L 113.313 41.07 C 112.238 33.675 106.629 28.722 99.213 28.347 L 99.11 28.352 L 99.11 28.347 L 54.505 28.346 Z" fill="#000000"></path>
</svg>