<svg viewBox="428.25 196.97 141.73 141.73">
	<path d="M608.768,195.89999999999998L608.768,195.928C584.913,196.637,569.391,215.51999999999998,567.248,238.22199999999998L567.229,238.22199999999998L567.236,238.353L567.229,238.42000000000002L567.239,238.42000000000002C567.944,261.024,586.179,279.697,608.768,280.88800000000003L608.768,280.93899999999996L609.737,280.93899999999996L609.749,280.94000000000005L609.753,280.94000000000005L609.748,280.94000000000005L609.748,280.93899999999996L666.442,280.93899999999996L666.442,280.93899999999996C674.334,281.389,680.107,287.192,680.609,295.015C680.376,303.052,674.156,308.547,666.444,309.28499999999997L609.748,309.28499999999997L609.748,309.28499999999997C601.942,308.89099999999996,595.705,303.12800000000004,595.576,295.11199999999997L567.229,295.11199999999997C567.846,317.74199999999996,585.898,336.95899999999995,608.768,337.60400000000004L608.768,337.63199999999995L666.442,337.63199999999995L666.442,337.63199999999995L666.438,337.63199999999995L666.442,337.63199999999995L666.452,337.63199999999995L667.241,337.63199999999995L667.241,337.60900000000004C690.451,337.28700000000003,707.847,317.53700000000003,708.952,295.11199999999997L708.961,295.11199999999997L708.956,295.01700000000005L708.962,294.91499999999996L708.951,294.91499999999996C708.217,272.06399999999996,689.87,253.824,667.241,252.615L667.241,252.59300000000002L609.744,252.59300000000002C601.763,252.074,596.407,246.031,595.582,238.32299999999998C595.804,230.28199999999998,602.084,224.969,609.748,224.247L609.749,224.247L666.443,224.247L666.443,224.247C674.249,224.64100000000002,680.485,230.404,680.615,238.42000000000002L708.962,238.42000000000002C708.34,215.03300000000002,689.69,196.55599999999998,666.45,195.89999999999998L666.45,195.89999999999998L608.768,195.89999999999998Z" fill="#000000"></path>
</svg>