<svg viewBox="428.25 196.97 141.73 141.73">
	<path d="M 41.539 -0 L 41.539 0.028 C 17.684 0.737 2.162 19.62 0.019 42.322 L 0 42.322 L 0.007 42.453 L 0 42.52 L 0.01 42.52 C 0.715 65.124 18.95 83.797 41.539 84.988 L 41.539 85.039 L 42.508 85.039 L 42.52 85.04 L 42.524 85.04 L 42.519 85.04 L 42.519 85.039 L 99.213 85.039 L 99.213 85.039 C 107.105 85.489 112.878 91.292 113.38 99.115 C 113.147 107.152 106.927 112.647 99.215 113.385 L 42.519 113.385 L 42.519 113.385 C 34.713 112.991 28.476 107.228 28.347 99.212 L 0 99.212 C 0.617 121.842 18.669 141.059 41.539 141.704 L 41.539 141.732 L 99.213 141.732 L 99.213 141.732 L 99.209 141.732 L 99.213 141.732 L 99.223 141.732 L 100.012 141.732 L 100.012 141.709 C 123.222 141.387 140.618 121.637 141.723 99.212 L 141.732 99.212 L 141.727 99.117 L 141.733 99.015 L 141.722 99.015 C 140.988 76.164 122.641 57.924 100.012 56.715 L 100.012 56.693 L 42.515 56.693 C 34.534 56.174 29.178 50.131 28.353 42.423 C 28.575 34.382 34.855 29.069 42.519 28.347 L 42.52 28.347 L 99.214 28.347 L 99.214 28.347 C 107.02 28.741 113.256 34.504 113.386 42.52 L 141.733 42.52 C 141.111 19.133 122.461 0.656 99.221 -0 L 99.221 -0 L 41.539 -0 Z" fill="#000000"></path>
</svg>